<?xml version="1.0" encoding="utf-8"?>
<!-- Generator: Adobe Illustrator 19.1.0, SVG Export Plug-In . SVG Version: 6.00 Build 0)  -->
<!DOCTYPE svg PUBLIC "-//W3C//DTD SVG 1.1//EN" "http://www.w3.org/Graphics/SVG/1.1/DTD/svg11.dtd">
<svg version="1.1" id="Layer_1" xmlns="http://www.w3.org/2000/svg" xmlns:xlink="http://www.w3.org/1999/xlink" x="0px" y="0px"
	 viewBox="0 0 1010.5 200" enable-background="new 0 0 1010.5 200" xml:space="preserve">
<g>
	<path d="M206.1,46.1c-0.6,1.8-1.5,3.6-1.9,5.4c-0.7,3.2-1.6,6.2-2.8,9.2c-1.7,4.4-3,9-4.4,13.5c-0.4,1.1-0.7,2.3-1,3.5
		c-0.7,2.7-1.5,5.3-2.2,8c-0.5,1.9-1,3.9-1.6,5.7c-2.1,6.1-4.3,12.2-6.4,18.4c-0.7,2-0.9,4.2-1.6,6.2c-0.7,2.4-1.7,4.7-2.4,7.1
		c-1,3.6-1.8,7.2-2.6,10.8c-0.9,4.3-2.2,8.4-3.9,12.4c-1.5,3.5-2.4,7.2-3.6,10.8c-0.3,0.9-0.7,1.8-1.1,2.6c-0.2,0.4-0.5,0.8-0.5,1.2
		c0,2.4-0.2,4.8-1.6,6.9c1,2.5-0.9,4-1.7,6c-0.9,2.5-1.7,5-2.4,7.6c-0.7,2.5-0.8,5.3-2.1,7.5c-1.2,2-1.2,4.2-2.1,6.1
		c-0.7,1.5-1.9,2.4-3.7,2.5c-1.2,0.1-2.4,0.6-3.6,0.7c-2.5,0.2-5.2-1.3-6.2-3.9c-0.7-1.7-1-3.6-1.5-5.4c-0.7-2.8-1.5-5.5-2.3-8.3
		c-0.7-2.6-1.2-5.2-1.9-7.8c-1-3.8-2-7.6-3.2-11.4c-2-6.2-4.2-12.3-6-18.5c-1.4-4.7-2.1-9.6-3.3-14.4c-0.6-2.6-1.8-5-2.5-7.6
		c-1.3-4.3-2.4-8.7-3.7-13c-0.7-2.4-1.7-4.7-2.2-7.2c-1.1-4.5-1.9-9.2-2.9-13.7c-0.3-1.2-0.9-2.3-1.2-3.6c-1.1-3.8-2-7.7-3.2-11.5
		c-0.8-2.6-1.9-5.1-2.8-7.7c-0.9-2.8-1.8-5.6-2.6-8.4c-1.5-5.5-2.7-11.1-4.2-16.6c-1-3.7-2.6-7.3-3.6-11c-0.9-3-1.4-6.1-2.2-9.1
		c-0.9-3.3-1.9-6.6-3.1-9.8c-1-2.6,0.5-5.4,3.1-6.5c4.6-1.8,9.1-0.5,13.6-0.3c2.8,0.1,3.9,1.6,5.2,4c2.7,5,3,10.5,4.2,15.8
		c0.1,0.5,0.2,1,0.4,1.5c1.2,3.7,2.7,7.3,3.6,11.1c1.2,5,1.8,10.2,2.9,15.2c0.7,3.1,1.8,6.1,2.6,9.2c0.5,1.8,0.9,3.7,1.4,5.4
		c0.9,3.1,2,6.1,2.9,9.2c1,3.6,1.8,7.3,2.8,11c0.8,3.3,1.8,6.6,2.6,9.8c0.1,0.3,0.2,0.7,0.2,1.1c0.4,4.5,1.5,8.8,3,13.1
		c1.4,4.1,2.3,8.2,3.5,12.4c0.8,2.9,1.6,5.8,2.4,8.8c1.2,4.6,2.5,9.2,3.7,13.8c0.4,1.4,0.8,2.8,1.2,4.2c0.2,0,0.3,0,0.5,0
		c0.2-0.9,0.5-1.7,0.7-2.6c0.9-3.8,1.7-7.7,2.8-11.4c1-3.4,2.4-6.7,3.1-10.3c0.7-4,2.2-7.8,3.4-11.7c0.6-1.7,1.8-3.2,2.3-4.9
		c1.4-4,3.2-7.7,4.1-11.9c0.9-4.3,2.6-8.4,3.9-12.6c0.7-2.2,1.3-4.4,1.9-6.6c0.9-3,1.9-5.9,2.6-8.9c1.4-6.3,2.8-12.7,5.3-18.7
		c0.9-2.1,1.2-4.5,1.9-6.8c1.1-3.5,2.3-6.9,3.6-10.4c0.9-2.5,1.9-5,2.9-7.5c0,0,0.1-0.1,0-0.1c-1.1-4,1.8-7.1,2.4-10.8
		c0.3-2.1,1-4.3,2-6.2c0.9-2,2.2-4,3.6-5.7c0.6-0.7,1.9-0.9,3-1c2.3-0.2,4.6-0.3,6.9-0.4c1.8,0,3.7,1.7,4.1,3.3
		c1.8,5.9,3.6,11.8,5.4,17.7c1.3,4.2,2.6,8.5,4,12.7c1,2.9,2.1,5.7,3.2,8.5c1.4,3.7,2.9,7.3,4.3,11c0.7,2,1.3,4.1,1.9,6.1
		c1.5,4.4,3,8.9,4.5,13.3c1.3,4,2.6,8.1,3.8,12.1c1.4,4.3,2.8,8.7,4.1,13c1.5,5.2,2.9,10.4,4.4,15.6c0.7,2.4,1.8,4.7,2.5,7.1
		c1,3.3,2.1,6.5,2.7,9.9c1.1,6.3,3.7,12.1,5.9,18.1c0.1,0.2,0.2,0.4,0.3,0.6c0.1,0.1,0.2,0.2,0.7,0.5c0.5-1.4,1-2.7,1.5-4
		c1.5-4.2,3-8.4,4.3-12.7c0.9-3,1.3-6.1,2.1-9.2c1.6-5.9,3.4-11.8,4.9-17.7c0.8-3.2,1.3-6.4,2.1-9.6c0.6-2.6,1.6-5.2,2.3-7.8
		c0.9-3.5,1.6-7,2.5-10.4c1.2-5.2,2.3-10.5,3.6-15.7c1.1-4.6,2.5-9.1,3.8-13.6c0.8-2.8,1.8-5.6,2.6-8.4c0.4-1.4,0.3-2.8,0.7-4.2
		c0.9-3.1,1.9-6.2,2.8-9.3c0.8-3,2.1-6.1,1.9-9.2c-0.1-3.3,1.1-6.1,1.6-9.1c0.1-0.7,0.2-1.5,0.3-2.2c0.2-1.2,0.6-2.3,1.9-2.6
		c1.9-0.5,3.8-0.9,5.8-1.2c2.3-0.3,4.6-0.4,6.9-0.4c1.1,0,2.3,0.4,3.3,0.9c1.4,0.7,2.7,1.7,3.9,2.6c1.3,1.1,1.5,2.8,0.8,4.2
		c-0.7,1.4-1.4,2.9-1.8,4.4c-1.2,3.7-2.2,7.4-3.3,11.1c-1.2,4.2-2.4,8.5-3.6,12.7c-0.9,3.2-1.8,6.5-2.7,9.7c-0.7,2.6-1.3,5.2-2,7.9
		c-0.4,1.5-0.8,2.9-1.2,4.4c-0.9,3.2-1.8,6.4-2.8,9.6c-0.5,1.7-1.3,3.4-1.9,5.1c-0.4,1.2-0.8,2.5-1.1,3.7c-0.6,2.1-1.5,4.2-1.7,6.4
		c-0.3,4.2-1.6,8.1-2.5,12.1c-0.5,2.2-1.6,4.2-2.3,6.4c-0.6,1.9-1,4-1.6,5.9c-1,3.3-2.2,6.5-3,9.8c-1.2,4.9-2,9.8-3.1,14.8
		c-0.4,1.7-1.1,3.4-1.6,5c-0.9,2.8-1.8,5.7-2.6,8.5c-1.4,5.2-2.7,10.4-4,15.6c-0.7,2.7-1.3,5.4-2.1,8c-0.4,1.3-1.2,2.5-1.7,3.9
		c-0.7,2.1-1.3,4.2-2,6.3c-1,3.4-2,6.9-3,10.4c-0.3,1-0.7,1.9-0.8,2.9c-0.6,3.9-2,3.8-4.6,4.4c-1.4,0.3-3,0.7-4.3-0.6
		c-0.2-0.2-0.8-0.1-1.2-0.2c-1.8-0.1-2.7-1-3.3-2.7c-0.7-1.9-1.6-3.8-2.3-5.7c-0.5-1.3-0.9-2.7-1.1-4.1c-1.1-6.3-3.2-12.2-5.4-18.2
		c-0.6-1.6-0.9-3.2-1.5-4.8c-0.8-2.4-1.9-4.8-2.7-7.2c-0.9-2.6-1.6-5.3-2.4-7.9c-1.2-4.2-2.3-8.5-3.6-12.7
		c-1.2-4.1-2.5-8.1-3.9-12.1c-1.3-3.8-2.9-7.4-4.2-11.2c-1.7-5-3.4-10-5-15c-1.7-5.4-3.2-10.8-5-16.2c-1.4-4.2-3-8.3-4.5-12.4
		c-1.3-3.7-2.4-7.5-3.9-11.1c-1-2.3-2.1-4.4-2.8-6.8c-0.4-1.2-0.8-2.4-1.2-3.6C206.7,46.1,206.4,46.1,206.1,46.1z"/>
	<path d="M611.7,195.4c-2,0.4-4,1-6,1.2c-3.4,0.3-6.8,0.2-10.1,0.4c-3.5,0.2-6.9,0.5-10.4,0.8c-0.4,0-0.7,0-1.1,0
		c-3.9-0.2-7.7-0.5-11.6-0.6c-2.7-0.1-5.4-0.2-8.2-0.2c-1.7,0-3.3,0-5,0c-3.1,0.1-6.3,0.3-9.4,0.2c-2.9-0.1-5.8-0.4-8.6-0.9
		c-2.4-0.4-4.4-2.9-3.9-5.6c0.1-0.8-0.3-1.6-0.3-2.4c0-5.3,0.2-10.6,0.2-15.9c0-2.5-0.1-4.9-0.2-7.4c0-1.9,0-3.9,0-5.8
		c0-2.2,0-4.4,0-6.6c0-5.3,0-10.6,0-15.9c0-2.1-0.3-4.2-0.2-6.3c0.1-2,0.5-4.1,0.5-6.1c0.1-3.9,0-7.7,0-11.6c0-2.1,0-4.3,0-6.4
		c-0.1-5.1-0.2-10.2-0.2-15.3c0-4.8,0.5-9.5,0.2-14.2c-0.3-3.5,0.4-7.1-1-10.6c-0.6-1.4-0.2-3.2-0.2-4.9c0-5.8,0-11.6,0.1-17.5
		c0-4.7,0.3-9.3,0.2-14c-0.1-3-0.7-6-0.8-8.9c-0.1-2.1,0.4-4.3,0.4-6.4c0-1.8-0.1-3.6-0.5-5.3c-0.6-2,0.4-4.9,2.6-5.8
		c2.4-1,4.9-1.7,7.6-1.5c5.1,0.4,10.1,0,15.1-0.7c2.3-0.3,4.6-0.2,6.9-0.2c4.8-0.1,9.5-0.4,14.3-0.4c4.3,0.1,8.7,0.6,13,0.8
		c1.5,0.1,3-0.4,4.5-0.3c3.7,0.1,7.4,0.3,11.1,0.7c1.8,0.2,3.5,1.1,5.3,1.7c1.5,0.5,2.9,0.9,4.4,1.5c1.6,0.6,3.2,1.3,4.8,1.9
		c2,0.8,4.1,1.3,6,2.3c3.5,1.8,7.3,3.1,9.9,6.3c0.8,1,2.3,1.4,3.4,2.3c0.9,0.7,1.7,1.6,2.5,2.5c0.6,0.7,1.1,1.4,1.5,2.2
		c0.7,1.1,1.4,2.2,2,3.3c0.9,1.5,1.7,3,2.5,4.5c1.4,2.3,2.8,4.6,4.1,6.9c0.2,0.3,0.3,0.8,0.4,1.2c0.2,1.6,0.4,3.3,0.7,4.9
		c0.2,1.5,0.7,2.9,0.2,4.6c-0.5,1.5,0.4,3.3,0.3,4.9c-0.2,3.4-0.3,6.8-0.9,10.1c-0.6,2.8-1.9,5.5-2.8,8.3c-1.1,3.7-3.1,6.9-5.1,10.1
		c-0.2,0.4-0.5,0.7-0.7,1c-0.7,0.9-1.4,1.8-2.1,2.6c-1.2,1.3-2.5,2.7-3.8,3.9c-2.2,2.1-4.4,4.1-6.7,6.1c-0.6,0.6-1.3,1.1-1.9,1.6
		c-0.7,0.5-1,1.1,0,1.5c4.2,1.8,7,5.2,10.4,8c2.1,1.6,4.3,3,6.2,4.8c1.9,1.8,3.4,4.1,5,6.1c0.2,0.2,0.3,0.6,0.5,0.8
		c2.8,1.4,3.6,4.1,4.4,6.8c1.2,4.2,2.5,8.5,3.1,12.8c0.5,3.6,0.7,7.4-0.2,11.1c-0.3,1.3,0,2.9-0.5,4.1c-1,2.5-1.7,5-1.8,7.7
		c0,0.4-0.2,0.9-0.5,1.3c-1.2,2.2-2.3,4.5-3.5,6.6c-0.7,1.2-1.5,2.2-2.3,3.3c-0.2,0.3-0.7,0.5-0.7,0.8c-0.4,2.5-2.8,3.5-4,5.3
		c-0.2,0.3-0.6,0.5-0.9,0.8c-0.9,1-1.9,2.1-2.8,3.1c-0.3,0.3-0.4,0.7-0.8,1c-2.9,2.1-5.8,4.3-8.9,6.1c-2,1.2-4.3,1.7-6.4,2.6
		c-2.2,0.9-4.5,1.8-6.7,2.7c-0.6,0.2-1.2,0.3-1.8,0.4c-3.5,0.5-7.1,1-10.6,1.5C611.8,195.6,611.8,195.5,611.7,195.4z M560.2,112.1
		c-0.4,0.1-1.2,0.3-1.9,0.3c-1.6-0.1-1.9,0.7-1.9,2.1c0,6.1-0.1,12.2-0.2,18.3c0,2.8-0.3,5.6-0.2,8.3c0.2,6.3,0.5,12.6,0.9,18.9
		c0.3,5.3,0.7,10.6,1.1,15.9c0,0.2,0.3,0.7,0.5,0.7c1.1,0.2,2.2,0.3,3.2,0.3c3.8-0.1,7.6-0.3,11.4-0.3c4.1,0.1,8.1,0.5,12.2,0.7
		c2.5,0.1,5-0.1,7.5-0.2c4.8-0.2,9.5-0.4,14.3-0.6c2-0.1,4-0.3,6.1-0.5c1.2-0.1,2.4,0.1,3.5-0.2c5.8-1.6,10.6-4.7,14.3-9.5
		c2.5-3.3,5.2-6.5,7.4-10.1c1-1.8,1.7-3.4,1.9-5.4c0.1-0.6,0.3-1.2,0.3-1.9c0.2-3.5,1.5-7,0.5-10.5c-0.4-1.7-1.3-3.3-2.1-4.8
		c-1.9-3.4-3.8-6.7-6-9.9c-1-1.5-2.5-2.8-4.1-3.6c-4.2-1.9-8.2-4.4-12.8-5.5c-4.4-1.1-8.6-3.2-13.3-3.4c-1.4-0.1-2.7-0.1-4.1-0.1
		c-3.3,0-6.6-0.1-9.9-0.1c-2.4,0-4.7,0.3-7.1,0.3c-3.1,0.1-6.3,0-9.4,0.1c-2.1,0.1-4.1,0.7-6.2,0.8
		C564.2,112.4,562.4,112.2,560.2,112.1z M557.8,23.1c0,1.3,0,2.5,0,3.7c0,3.7,0,7.3,0.1,11c0,1.7,0.3,3.4,0.2,5
		c-0.1,2.5-0.6,5.1-0.6,7.6c0.1,4.9,0.5,9.9,0.7,14.8c0.2,3.3-0.6,6.5-0.2,9.8c0.3,3.1,0,6.3-0.1,9.4c-0.1,1.6,0.6,2.3,2.2,2.7
		c7.4,1.7,15,1.8,22.5,1.7c4.4,0,8.7-0.2,13.1-0.3c3.5-0.1,7-0.4,10.6-0.3c4.8,0.2,9-1.4,13-3.6c2.6-1.5,4.9-3.7,7.2-5.7
		c2.1-1.8,4-3.6,4.8-6.5c0.9-3.3,2.9-6.3,3.1-9.9c0.2-2.5,1-4.9,1-7.4c-0.1-2.8-0.9-5.6-1.3-8.4c-0.4-3-1.3-5.7-3.2-8.1
		c-0.2-0.3-0.2-0.7-0.4-1c-0.3-0.5-0.5-1.2-1-1.5c-4.8-3.5-9.7-6.9-15.3-9.1c-3.4-1.3-6.7-2.4-10.5-2.2c-3.4,0.3-6.8,0.1-10.2,0.1
		c-0.4,0-0.9,0-1.2-0.1c-2.4-1.2-5.1-1.2-7.7-1.2c-2.2,0-4.4,0.2-6.6-0.1c-3.1-0.4-6.2-0.3-9.3-0.3c-1.9,0-3.9,0.3-5.8,0.3
		C561.2,23.5,559.6,23.3,557.8,23.1z"/>
	<path d="M777.7,98.4c1.1,0.5,2.2,0.9,3.1,1.5c3.1,1.9,6,4,9.1,5.6c2.6,1.3,4.9,2.8,6.8,4.9c0.3,0.3,0.6,0.7,0.7,1
		c0.4,2.5,2.5,3.7,3.8,5.5c1.9,2.6,3.4,5.5,5,8.3c0.4,0.7,0.6,1.4,0.9,2.1c0.3,1.1,0.6,2.3,0.9,3.4c0.1,0.4-0.1,0.9,0,1.2
		c1.4,3.8,0.9,7.8,0.7,11.7c-0.2,3.8-1.1,7.6-1.9,11.4c-0.6,2.8-1.5,5.5-2.5,8.2c-0.4,1.1-1.1,2.1-1.8,3.1
		c-2.3,3.8-4.5,7.7-7.1,11.2c-1.4,1.9-3.5,3.2-5.3,4.8c-1.4,1.2-2.8,2.5-4.1,3.8c-0.9,0.9-1.8,1.4-3.1,1.4c-1.1,0-2.2,0.7-3.3,1.2
		c-0.8,0.3-1.6,0.7-2.3,1.2c-0.8,0.6-1.5,1.3-2.3,1.9c-0.9,0.7-1.9,1.6-2.9,1.8c-4.1,0.7-8.3,1.1-12.5,1.8c-0.9,0.1-1.7,0.5-2.5,0.9
		c-2.7,1.2-5.6,0.6-8.4,0.8c-1.2,0.1-2.5,0.4-3.7,0.4c-1.3,0-2.7-0.3-4-0.4c-0.7-0.1-1.3-0.2-2-0.2c-3.6-0.1-7.3,0-10.9-0.3
		c-5.5-0.4-11-1.2-16.6-0.1c-1,0.2-2.1,0.1-3.1,0c-1.8-0.1-3.7-0.7-5.3-0.3c-3.8,1.1-7.4,0-11.1,0.1c-2.1,0.1-4.2-0.2-6.2-0.8
		c-2.8-0.8-4.6-3.9-4.6-7.3c0-3.4,0.1-6.8,0-10.2c0-2.3-0.3-4.7-0.3-7c0.2-7.2,0.6-14.4,0.7-21.5c0.1-2.6-0.4-5.3-0.4-7.9
		c-0.1-2.8,0-5.6,0-8.5c0.1-4.5,0.6-9.1,0.1-13.5c-0.3-2.7-0.1-5.4-0.5-8.1c-0.8-6.1,0.1-12.1,0.3-18.1c0.1-2.3-0.3-4.6-0.3-6.9
		c-0.1-3.9,0-7.8,0-11.6c0-4.8-0.1-9.6,0-14.4c0-2.1,0.4-4.2,0.5-6.3c0.1-1.9-0.2-3.9-0.2-5.8c0-3.6,0.5-7.2,0.2-10.7
		c-0.3-4-0.5-8.1-0.5-12.1c-0.1-4-0.1-8-0.2-11.9c0-1.5-0.2-3-0.3-4.6c-0.2-2.7,2.6-6.3,5.3-6.6c0.3,0,0.6,0,0.8,0.1
		c2.6,1.5,5.2-0.2,7.8-0.1c3.2,0.1,6.4-0.5,9.5-0.5c3.6,0,7.1,0.3,10.7,0.3c0.9,0,1.8-0.2,2.7-0.3c1.7-0.1,3.4,0,5.2,0.3
		c2.7,0.4,5.5,0,8.3-0.1c3.5-0.1,6.9-0.1,10.4-0.1c1,0,2.1,0,3.1,0.1c3.9,0.4,7.7,0.7,11.6,1.2c4.2,0.6,8.4,1.5,12.6,2.2
		c0.3,0.1,0.7,0.1,0.9,0.3c1.6,2.3,4.4,2.7,6.7,4c3.2,1.7,6.6,3,9.7,4.9c1.7,1,2.9,2.8,4.3,4.3c0.6,0.6,1.2,1.3,1.8,1.9
		c4.5,5.1,7.1,11.2,8.2,17.9c0.1,0.7,0.4,1.3,0.7,1.9c1,1.9,1.9,3.7,1.7,5.9c-0.2,2.9-0.3,5.7-0.4,8.6c0,0.7,0.1,1.3,0,2
		c-0.1,2.4,0.1,4.8-0.3,7.2c-0.5,2.7-1.2,5.4-2.2,8c-1.3,3.3-2.5,6.6-5,9.2c-2.6,2.6-5.2,5.2-7.8,7.7c-0.5,0.5-1.1,1-1.5,1.6
		c-1.8,2.5-4.1,4.4-6.6,6.2C778.2,97.6,778.1,97.9,777.7,98.4z M700.9,153.6c0,0-0.1,0-0.1,0c0,1.8-0.1,3.6,0,5.4
		c0.4,4.3,0.9,8.6,1.3,13c0.3,2.8,1.5,3.9,4.3,3.9c4.6,0,9.1,0.1,13.7,0.1c2.5,0,5.1,0.8,7.6-0.2c0.5-0.2,1.2-0.1,1.7,0.1
		c3.4,1.4,6.8,0.1,10.3,0.2c2.4,0.1,4.9-0.6,7.3-0.8c3.7-0.2,7.4,0,11-0.5c4.5-0.7,9-1.9,13.2-4.1c3.6-1.9,6.2-4.7,8.2-8.2
		c0.6-1.1,1.4-2.1,2-3.2c1.1-2.1,2.9-3.9,2.3-6.6c-0.2-0.8,0.2-1.8,0.4-2.8c0.7-4,2-7.9,0.9-12c-0.5-1.8-0.3-3.8-0.9-5.6
		c-1.7-5-4.1-9.7-8.1-13.4c-1.1-1-2.1-2.1-3.3-2.9c-2.2-1.4-4.6-2.6-6.8-4.1c-2.7-1.8-5.7-2.7-8.9-2.9c-2.4-0.1-4.9-0.5-7.3-0.6
		c-3.2-0.1-6.3-0.1-9.5-0.1c-1.5,0-3-0.2-4.5,0c-2.5,0.3-5.1,0.7-7.6,1.1c-4.4,0.6-8.8-0.8-13.2,0.2c-1,0.2-2,0.3-3,0.4
		c-3,0.1-6,0.3-9.1,0.3c-0.9,0-1.3,0.4-1.3,1.3c0,3-0.1,6-0.2,8.9c-0.1,3.7-0.2,7.4-0.3,11.1c0,3.1,0.1,6.3,0,9.4
		c-0.1,2-0.5,4.1-0.6,6.1C700.4,149.4,700.7,151.5,700.9,153.6z M779.8,52.9c-0.1,0-0.2,0-0.3,0c0-1.1,0.1-2.2,0-3.3
		c-0.3-2.3-0.7-4.6-1.3-6.8c-0.8-3.1-0.9-6.6-3.3-9.1c-3.1-3.1-6.2-6.3-10.4-7.9c-2.5-1-5-2.2-7.6-2.8c-2.9-0.7-6-0.9-9-1.3
		c-1.5-0.2-3.2-0.7-4.6-0.2c-1.6,0.5-3,0.5-4.6,0.2c-0.7-0.1-1.4-0.2-2.2-0.2c-2.5-0.1-5,0-7.5-0.2c-3.2-0.2-6.5-0.8-9.7-0.8
		c-4.3,0.1-8.6,0.6-12.8,0.9c-4.5,0.3-4.6,0.3-4.8,4.9c-0.3,5.2-0.5,10.5-0.6,15.7c-0.1,5,0.1,10,0.2,14.9
		c0.2,5.8,0.6,11.5,0.9,17.3c0.1,1.8,0.4,3.8,0,5.5c-0.6,2.6-0.8,5-0.6,7.6c0.1,1.3,0.6,1.7,1.8,1.7c3.8,0.1,7.6,0.3,11.5,0.3
		c6.5,0.1,13,0,19.5,0.1c2.9,0,5.8,0.4,8.8,0.4c2.4,0,4.9-0.2,7.3-0.7c2.7-0.6,5.3-2,8.1-2.4c3.4-0.5,6.2-2.4,9.3-3.6
		c0.7-0.3,1.3-0.9,1.8-1.5c2.6-3.2,5.2-6.4,6.8-10.3c0.7-1.7,1.9-3.2,2.4-4.9c0.6-2.1,0.9-4.3,1-6.5C780,57.7,779.8,55.3,779.8,52.9
		z"/>
	<path d="M317.8,101.1c0.4-3.5,0.8-8.2,1.3-12.9c0.4-3.5,0.7-7.1,1.2-10.6c0.5-3.1,1.3-6.1,2.2-9.1c0.8-2.6,1.9-5.1,2.9-7.6
		c1.1-2.6,2.2-5.2,3.5-7.8c2.3-4.5,4.6-9,8-12.8c2.6-2.8,5-5.8,7.5-8.8c0.4-0.4,0.6-1.1,1.1-1.3c2.2-0.9,3-3.1,4.6-4.6
		c2-2,4.3-3.6,6.6-5.3c3.2-2.3,6.4-4.6,9.7-6.7c2.6-1.6,5.4-3.1,8.3-4.3c3.8-1.6,7.9-2.4,11.6-4.3c3.7-1.9,7.7-1.9,11.5-2.9
		c1.6-0.4,3.2-1.2,4.8-1.4c3.1-0.4,6.2-0.7,9.3-0.7c2.9-0.1,5.8,0.2,8.6,0.2c1.7,0,3.5-0.3,5.2-0.1c3.4,0.5,6.8,1.3,10.3,1.9
		c1.5,0.3,3.1,0.5,4.6,0.8c2.3,0.5,4.8,0.8,7,1.5c5.1,1.8,10.2,3.6,15.1,5.9c4.1,1.9,7.8,4.6,11.7,6.9c1.8,1.1,3.1,2.9,4.5,4.5
		c1.3,1.5,2.7,3.2,5,3.6c0.3,0.1,0.7,0.2,0.9,0.5c1.3,1.8,2.6,3.7,3.9,5.6c0.3,0.4,0.6,0.7,1,0.9c1.4,0.7,2.4,1.7,3.2,3.2
		c0.8,1.7,2,3.5,3.5,4.7c2.1,1.8,3.3,4,4.7,6.2c1.1,1.7,2.4,3.3,3.6,4.9c0.7,1,1.5,1.9,2.2,2.9c0.2,0.3,0.5,0.7,0.4,1
		c-0.5,3.1,2,5.3,2.7,8c0.9,3.8,2.4,7.4,3.7,11c0.4,1.1,1,2.2,1.2,3.4c0.4,2.8,0.6,5.7,0.9,8.6c0.1,1.1,0.4,2.2,0.6,3.3
		c0.1,0.6,0.1,1.1,0.2,1.7c0.1,2.2,0.3,4.3,0.4,6.5c0,0.2,0.1,0.4,0.1,0.6c-0.2,1.9-0.4,3.7-0.7,5.6c-0.6,3.8-1.1,7.5-1.7,11.3
		c0,0.3-0.3,0.6-0.2,0.7c1.3,2.4-0.4,4.4-0.9,6.6c-0.3,1.5-0.6,3.1-1,4.6c-1,3.5-2.3,6.9-3,10.4c-0.6,3.2-3.2,5-4.5,7.7
		c-0.6,1.2-1.4,2.3-2.1,3.5c-1.7,3.1-3.3,6.2-5.1,9.2c-0.5,0.8-1.5,1.3-2.1,2.1c-1.6,1.8-3,3.8-4.6,5.6c-2.3,2.6-4.6,5.2-7,7.8
		c-0.7,0.7-1.8,1.1-2.6,1.7c-2.9,2.2-5.8,4.5-8.7,6.6c-1.6,1.1-3.4,1.8-5.1,2.7c-0.6,0.3-1.2,0.9-1.8,1.2c-3,1.3-6,2.5-9,3.7
		c-2.2,0.9-4.3,1.8-6.6,2.5c-2.7,0.8-4.9,2.2-7.3,3.5c-1.6,0.8-3.6,0.8-5.4,1.1c-3.1,0.5-6.2,1-9.3,1.5c-0.4,0.1-0.8,0.1-1.1,0
		c-1.9-0.7-3.6-0.8-5.4,0.4c-0.4,0.3-1.1,0.1-1.7,0.1c-1.7,0.1-3.4,0.4-5.1,0.4c-1.4,0-2.9,0-4.3-0.2c-4.2-0.6-8.5-1.2-12.7-1.9
		c-3.9-0.7-7.8-1.4-11.7-2.3c-1.2-0.3-2.3-1-3.5-1.6c-2.3-1-4.7-2-7.1-3c-1.6-0.7-3.2-1.4-4.7-2.1c-0.1,0-0.2-0.1-0.3-0.1
		c-2.9-3.3-7-4.6-10.6-6.9c-2.8-1.8-5.2-4.3-7.9-6.4c-0.6-0.5-1.3-0.9-1.9-1.4c-1-1.1-1.8-2.2-2.7-3.3c-0.9-1-1.5-2.2-3.1-2.5
		c-2-0.3-2.9-1.6-3.1-3.5c-0.1-1.3-0.9-1.9-1.8-2.7c-1.6-1.4-2.9-3.2-4.2-5c-1-1.4-1.7-3-2.5-4.5c-1-2-2.2-3.7-4-5.1
		c-0.9-0.7-1.2-2.2-1.6-3.3c-1.1-3.1-1.6-6.6-3.3-9.3c-1.7-2.7-1.9-5.7-3-8.5c-1.1-2.6-1.1-5.7-1.5-8.6
		C319.1,111.9,318.5,107.1,317.8,101.1z M337.5,107c-0.1,0-0.3,0-0.4,0c0.7,4.4,1.2,8.9,2.2,13.3c0.8,3.3,2.3,6.5,3.4,9.7
		c1,2.9,2.4,5.5,4.2,8c1.7,2.3,3.4,4.6,4.8,7.1c1.3,2.4,2.5,4.7,4.8,6.2c0.7,0.5,1.2,1.5,1.8,2.2c1,1.1,2,2.1,3.1,3.1
		c1,0.9,2.1,1.7,3.2,2.4c2.3,1.6,4.7,3.2,7,4.9c1.2,0.9,2.3,2,3.6,2.7c2.2,1.3,4.5,2.3,6.8,3.5c0.5,0.2,0.8,0.7,1.3,0.9
		c2.1,1.1,4.2,2.3,6.3,3.4c0.7,0.4,1.4,0.6,2.1,0.9c1.6,0.7,3.2,1.7,4.9,2.1c4.4,1.1,9,0.9,13.5,2.1c3.1,0.8,6.5,0.5,9.7,0.4
		c2.6-0.1,5.2-0.5,7.8-0.9c2.9-0.5,5.8-0.9,8.6-1.7c2.9-0.8,5.8-1.9,8.6-3.2c3-1.3,5.8-2.8,8.7-4.3c2-1,4-2.3,6.1-3
		c2.1-0.7,3.8-1.8,5.2-3.5c0.3-0.3,0.7-0.6,1-0.9c2.1-1.6,4.3-3,6.2-4.8c3.6-3.5,7.2-7,10.5-10.8c1.5-1.6,2.5-3.7,3.6-5.7
		c1.5-2.5,3.1-5,4.1-7.7c1.3-3.3,2.3-6.7,3.1-10.1c1-3.9,1.7-7.8,2.6-11.8c0.2-1,0.3-1.9,0.5-2.9c0.5-2.6,1.5-5.2,1.5-7.9
		c0-5.8-0.5-11.6-2-17.3c-0.5-2-0.9-4.1-1.5-6.1c-0.4-1.4-1-2.7-1.5-4.1c-0.6-1.7-1-3.4-1.7-5c-1-2.2-2.5-4.3-3.4-6.5
		c-2-4.5-4-9.1-7.3-12.9c-1.3-1.6-2.8-2.9-4.3-4.4c-0.8-0.8-1.6-1.5-2.4-2.2c-1.5-1.3-3.1-2.4-4.6-3.7c-2.1-1.8-4.1-3.8-6.3-5.5
		c-1.3-1-2.9-1.9-4.5-2.1c-1.7-0.2-2.8-1-3.9-2c-0.6-0.5-1.2-0.9-1.9-1.2c-0.9-0.4-2-0.6-2.9-1c-1.7-0.7-3.2-1.8-4.9-2.3
		c-3.8-1.3-7.6-2.2-11.4-3.5c-4.3-1.5-9,0.1-13.1-1.9c-0.1,0-0.2,0-0.3,0c-1.8,0.2-3.5,0.5-5.3,0.7c-2.4,0.3-4.8-0.1-7.2,0.1
		c-2.2,0.1-4.2,0.6-6.3,1.2c-1.1,0.3-2.3,0.7-3.4,1.1c-0.8,0.3-1.6,0.6-2.4,0.9c-1.5,0.5-3.1,0.8-4.6,1.3c-2.1,0.8-4.2,1.6-6.3,2.6
		c-2.9,1.3-5.8,2.4-8.5,4.1c-4.2,2.7-7.9,6.3-12.6,8.3c-0.3,0.1-0.5,0.5-0.7,0.8c-0.6,0.8-1.2,1.7-1.8,2.5c-1.3,1.7-2.7,3.3-4.1,5
		c-2,2.5-3.9,4.9-5.8,7.4c-1.5,2-3.2,4-4.1,6.3c-0.6,1.6-1.1,2.9-2.2,4.2c-1,1.2-1.6,2.6-1.7,4.3c-0.2,2.3-1.4,4.5-2,6.7
		c-0.6,2.2-1.2,4.3-1.7,6.5c-0.6,2.7-1.2,5.4-1.8,8.1c-0.3,1.6-0.8,3.2-0.7,4.7C337,99.5,337.3,103.2,337.5,107z"/>
	<path d="M913.9,32.1c0,3.6,0.3,7.2-0.1,10.8c-0.3,3.6,0.5,7,0.6,10.5c0.1,5-0.5,10-0.6,14.9c-0.1,2.5,0.3,5.1,0.4,7.6
		c0.1,1.5,0.2,3,0.2,4.5c0,2.1-0.1,4.3-0.1,6.4c0,0.3,0.8,0.8,1.2,0.8c4.9,0.2,9.8,0.2,14.6,0.4c4.2,0.2,8.3,0.6,12.5,0.9
		c2,0.1,4,0.1,6,0.1c5.5,0,11,0,16.5,0c5.1,0,10.3-0.3,15.4,0.2c3.4,0.3,6.7-0.2,10-0.5c1-0.1,2.1,0.4,3,1c3.3,2.2,3.8,3.5,2.9,7.3
		c-0.1,0.6-0.1,1.4,0,2c0.6,2.6,0,4.8-1.8,6.8c-1.2,1.3-2.7,1.4-4.3,1.3c-1.5,0-3,0-4.5-0.1c-1.4-0.1-2.9-0.4-4.3-0.4
		c-4,0-8,0.1-12,0.1c-3.6,0-7.2-0.1-10.8-0.1c-2.2,0-4.4,0-6.6,0c-1.5,0-3,0-4.5-0.1c-6.8-0.1-13.6-0.4-20.4-0.4
		c-3.9,0-7.7,0.3-11.6,0.6c-1.2,0.1-0.9,1.1-1,1.8c-0.1,2.2,0.1,4.4,0,6.6c-0.2,4.7-0.5,9.3-0.6,14c0,2.1,0.4,4.3,0.4,6.4
		c0,3.2-0.2,6.5-0.2,9.7c0,3.7,0.2,7.3,0.1,11c0,1.6-0.5,3.2-0.5,4.8c-0.1,4.2,0,8.4,0,12.6c0,1.1-0.1,2.2-0.1,3.3
		c0,1,0.7,1.4,1.7,1.5c2.5,0.1,5,0.3,7.5,0.4c4.1,0.1,8.3,0.2,12.4,0.2c1,0,2.1-0.2,3.1-0.3c2.9-0.1,5.8-0.2,8.6-0.2
		c2.6-0.1,5.1-0.1,7.7-0.2c5-0.1,9.9-0.3,14.9-0.4c6.6-0.2,13.3-0.3,19.9-0.5c2.9-0.1,5.8-0.1,8.7-0.3c1.4-0.1,2.8-0.5,4.2-0.5
		c1.3,0,2.7,0.1,3.7,0.7c2,1.1,3.7,2.7,3.4,5.3c0,0.5,0.2,1.1,0.4,1.6c0.1,0.5,0.5,1,0.4,1.5c-0.1,2.4,0.2,5-1,7.2
		c-1,1.7-2.2,3.3-4.5,3.1c-1.9-0.1-3.9-0.3-5.8-0.3c-0.8,0-1.7,0.3-2.5,0.3c-3.1-0.1-6.3-0.2-9.4-0.3c-2.8-0.1-5.7-0.1-8.5-0.2
		c-0.8,0-1.6-0.2-2.3-0.3c-1.1-0.1-2.3-0.4-3.2,0.7c-0.2,0.2-0.7,0.3-1.1,0.2c-3.3-0.2-6.7-0.6-10-0.7c-1.1,0-2.2,0.4-3.3,0.6
		c-0.3,0.1-0.6,0.2-0.9,0.2c-3.2-0.1-6.3-0.3-9.5-0.4c-4.1-0.1-8.2-0.2-12.3-0.2c-5.3,0-10.7,0.2-16,0.3c-2.5,0-5-0.1-7.5-0.2
		c-0.2,0-0.5-0.1-0.6,0c-2.3,1.1-4.8,0.9-7.3,0.9c-2.3,0-4.6,0.1-6.8-0.2c-2.9-0.4-4.2-2.6-5-5.7c-0.3-1.3-0.6-2.7-0.6-4
		c0-2.9,0.2-5.7,0.2-8.6c0-2.4,0.8-4.6,0.3-7.1c-0.5-2.6,0.1-5.4,0.1-8.1c0-2.3-0.2-4.5-0.3-6.8c-0.2-2.7-0.5-5.4-0.5-8.2
		c0-2.1,0.5-4.1,0.5-6.2c0-3.6-0.4-7.1-0.5-10.7c-0.1-5.5-0.1-11-0.1-16.5c0.1-6.3,0.2-12.5,0.4-18.8c0.1-3.7,0.7-7.4,0.8-11
		c0.1-4.1-0.1-8.2-0.2-12.4c-0.1-2.8-0.3-5.5-0.3-8.3c0-3.1,0.2-6.2,0.2-9.3c0-2.2-0.3-4.3-0.3-6.5c0-4.8,0-9.5,0-14.3
		c0-2.2-0.2-4.3-0.3-6.5c0-1.7,0.5-3.6,0-5.1c-1.1-3.8-0.5-7.6-0.4-11.3c0-1.2-0.1-2.5,0.3-3.5c0.3-0.9,1.2-1.7,2-2.2
		c2.9-1.9,6.2-2.5,9.6-2.5c3.8,0,7.5,0.1,11.3,0c3-0.1,5.9-0.6,8.8-0.6c7.7,0.2,15.5,0.7,23.2,0.9c1.8,0,3.6-0.6,5.4-0.9
		c3.3-0.6,6.5-0.4,9.8,0.3c2.3,0.5,4.7,0.4,7,0.5c3.6,0.2,7.1,0.4,10.7,0.3c2.6,0,5.1-0.5,7.7-0.7c0.5-0.1,1-0.2,1.6-0.2
		c3.2,0.1,6.5,0.2,9.7,0.4c0.9,0.1,1.7,0.4,2.6,0.5c0.9,0.1,1.9,0.1,2.8,0c2.8-0.4,5.6,2.2,5.6,4.9c0,2,0.2,3.9-0.7,5.8
		c-0.1,0.3,0.1,0.7,0.1,1c0.5,2.2-0.9,4.5-3.1,5.1c-0.1,0-0.2,0-0.3,0.1c-2.9,2.4-6.3,1.4-9.4,1.2c-2.9-0.2-5.7-0.5-8.7-0.3
		c-2.8,0.2-5.6-0.5-8.4-0.5c-3.2-0.1-6.5,0.1-9.7,0.1c-5.1,0.1-10.1,0.1-15.2,0.2c-4.7,0.1-9.4,0.4-14.1,0.6c-1.5,0-3-0.2-4.6-0.2
		c-1.7,0-3.4,0.2-5.2,0.1c-1,0-2-0.5-3-0.5c-2.1,0-4.1,0.3-6.2,0.4c-2.1,0.1-4.3,0-6.4-0.1c-1.1,0-1.5,0.5-1.5,1.5
		c-0.1,3-0.3,6.1-0.4,9.1C913.6,32.1,913.7,32.1,913.9,32.1z"/>
	<path d="M836.5,122.7c0.3-1.5,0.7-3,0.9-4.5c0.2-1.5,0.1-3,0.1-4.5c0-1.3-0.2-2.5-0.2-3.8c0-2,0.2-4.1,0.2-6.1
		c0-4.6-0.2-9.1-0.2-13.7c0-1.8,0.4-3.7,0.4-5.5c0-0.9-0.2-1.8-0.2-2.7c-0.1-2.9-0.2-5.8-0.2-8.7c-0.1-5.2,0-10.4-0.1-15.7
		c0-2.6-0.3-5.1-0.3-7.7c0.1-4.1,0.4-8.1,0.5-12.2c0-0.8,0.1-1.6,0-2.4c-0.3-4.6-0.6-9.1-1-13.7c-0.2-2.9-0.3-5.8-0.6-8.8
		c-0.3-3.9,1.4-7,4-9.7c0.2-0.2,0.4-0.3,0.7-0.4c2.3-0.2,4.6-1,7-0.1c1.7,0.6,3.7,0.8,5.5,0.7c2.3,0,4.8,2.7,4.7,5
		c-0.1,3.7-0.7,7.4-0.2,11.2c0.4,3.4,0.2,6.8,0.3,10.2c0,1.5,0.2,3,0.2,4.5c0.1,5.1,0.2,10.1,0.2,15.2c0.1,6.4,0.1,12.7,0.1,19.1
		c0,2.6-0.3,5.1-0.3,7.7c0,2.9,0.1,5.8,0.1,8.8c0,0.5-0.2,0.9-0.2,1.4c-0.2,5.3-0.5,10.6-0.5,15.9c0,3.9,0.5,7.8,0.5,11.6
		c0,5.5-0.3,11-0.4,16.5c0,0.9,0,1.8,0,2.7c0,6.4,0,12.9,0.1,19.3c0,2.6,0.5,5.1,0.5,7.7c0,3.8-0.5,7.5-0.5,11.3
		c0,2.8,0.4,5.5,0.5,8.3c0.1,2.6,0,5.2,0.1,7.8c0,1.6,0.1,3.2-1.5,4.3c-0.5,0.3-0.7,1.1-1,1.8c-0.8,2-1.5,2.4-3.7,2.3
		c-1.3-0.1-2.7,0.1-4,0c-1.2-0.1-2.5-0.4-3.7-0.5c-1.2-0.1-2.4-0.2-3.5-0.4c-2.9-0.5-4.4-2.6-4.3-5.4c0.2-4.3,0.3-8.6,0.4-12.9
		c0-4.1-0.2-8.3-0.1-12.4c0.1-5.5,0.5-11,0.6-16.5c0-5-0.3-10-0.4-15c-0.1-3.4,0-6.8,0-10.2C836.7,122.7,836.6,122.7,836.5,122.7z"
		/>
	<path d="M26.7,14.5c-5.1,0-10.3,0.1-15.4,0c-2.3,0-4.7-0.4-7-0.6c-0.5-0.1-1.1-0.2-1.5-0.5c-3-1.7-3.2-7.3-0.6-9.4
		c2-1.6,4.1-1.6,6.4-1.3c1.2,0.2,2.5,0.1,3.8,0.2c2.2,0.2,4.3,0.6,6.5,0.6c3.5,0.1,7,0.1,10.6,0c5-0.1,10.1-0.6,15.1-0.6
		c3.3,0,6.7,0.5,10,0.5c3.4,0,6.8-0.5,10.2-0.5c3.1,0,6.3-0.8,9.4,0.6c2.9,1.3,4.2,4.4,3.8,7.4c-0.1,0.6-0.7,1.4-1.2,1.5
		c-1.7,0.5-3.5,1-5.2,1.2c-2.4,0.3-4.9,0.5-7.3,0.7c-2.5,0.2-5.1,0.6-7.7,0.6c-2.3,0-4.6-0.5-6.9-0.7c-1.4-0.1-2.7-0.3-4.1-0.2
		c-0.4,0-1.1,0.8-1.2,1.3c-0.2,1.8-0.3,3.6-0.2,5.5c0.1,3.8,0.2,7.5,0.4,11.3c0.2,3.7,0.6,7.3,0.7,11c0.1,3.2-0.2,6.4-0.4,9.6
		c0,0.8-0.3,1.6,0.8,1.6c3.5,0.1,7,0.3,10.5,0.3c3.6,0,7.2-0.3,10.8-0.5c1.1,0,2.2,0.1,3.3,0.2c5.4,0.2,7.1,2.8,7.1,7.8
		c0,0.5-0.1,1.1,0,1.6c0.3,1.6-0.4,3.1-2.1,3.2c-2.9,0.2-5.8,1.3-8.8,0.7c-0.6-0.1-1.2,0-1.7,0c-1.4,0-2.8,0-4.2,0
		c-1.5,0-2.9,0.3-4.4,0.2c-2.2-0.1-4.5-0.4-6.7-0.5c-3.5-0.1-6.9-0.1-10.4-0.2C36.1,67.1,33,67,29.9,67c-7.7-0.2-15.5-0.4-23.2-0.5
		c-2.5,0-4-1.5-5.4-3.3C1.2,63,1.1,62.8,1,62.6c-1.4-1.2-1.5-2.7-1.1-4.4c0.5-1.9,2.1-2.5,3.5-3.1c1.1-0.5,2.3-0.7,3.5-0.7
		c3.9,0,7.8,0.1,11.6,0.2c0.4,0,0.7,0.1,1.1,0.1c2.4,0.3,4.7,0.8,7.1,0.9c2,0.1,4.1-0.3,6.1-0.6c0.4-0.1,0.8-1.1,0.8-1.6
		c0.2-3.4,0.3-6.8,0.4-10.2c0.1-4.2,0.3-8.5,0.3-12.7c0-1.8-0.3-3.5-0.5-5.3c-0.1-0.8,0-1.6,0-2.4c-0.1-2.4-0.2-4.9-0.4-7.3
		c0-0.4-0.9-0.9-1.4-0.9c-1.7-0.1-3.5,0-5.2,0C26.7,14.5,26.7,14.5,26.7,14.5z"/>
	<path d="M10.1,101.7c0,4.6,0,8.5,0,12.3c0,2.3,0.4,4.5,0.2,6.8c-0.1,1.5,0.2,3.1-1,4.6c-1.1,1.4-2.4,1.4-3.8,1.3
		c-0.9,0-1.9-0.3-2.8-0.3c-1.5,0-2.4-0.9-2.8-2.1c-0.3-1.1-0.3-2.4-0.3-3.5c0-1.5,0-3.1,0-4.6c0.1-4.3,0.2-8.5,0.2-12.8
		C0.1,98.2,0.1,93,0.1,87.8c0-2,0.1-4,0.2-5.9c0.1-1.4,1.9-3.3,3.9-3.7C5.5,77.9,6.9,77.7,8,78c3.7,1,7.4-0.1,11.1,0.2
		c3.7,0.3,7.5,0,11.2,0c3.7,0,7.4,0,11.1,0c3.7,0.1,7.3,0.3,11,0.3c3,0,6.1-0.2,9.1-0.3c1.3,0,2.6-0.2,4-0.4
		c3.2-0.6,6.6-0.6,9.7,0.8c1.4,0.6,2,1.7,2.4,3.1c0.2,1,0.7,1.9,1.1,2.9c0.1,0.2,0.2,0.5,0.2,0.7c0,3.6,0,7.2-0.1,10.8
		c0,3.6-0.1,7.3,0,10.9c0.1,3.5,0.7,7.1,0.9,10.6c0.1,2.6,0,5.2-1.6,7.6c-1.5,2.3-4.8,2.5-7,1c-3-1.9-3.5-4.7-3.5-7.9
		c0-3.5-0.2-7-0.2-10.5c0-1.9-0.1-3.8,0-5.6c0.1-1.6,0.7-3.2,0.8-4.9c0.1-2-0.1-4-0.4-6c-0.1-0.5-0.9-1.3-1.4-1.3
		c-3.9-0.1-7.8,0-11.7,0c-2.6,0-5.2,0.2-7.9,0.2c-0.9,0-1.3,0.3-1.3,1.2c0,2-0.1,4-0.1,5.9c0,3-0.1,6-0.1,8.9c0,1.9,0.4,3.8,0.4,5.8
		c0,2.7-0.2,5.4-0.5,8.1c-0.1,0.6-0.8,1.3-1.3,1.5c-2,0.6-3.8,2.1-6.2,0.8c-2.4-1.3-2.9-3.3-3.2-5.5c-0.2-1.5-0.1-3-0.1-4.5
		c0-4.5,0-9,0.1-13.5c0-2.4,0.1-4.8,0.3-7.2c0-1-0.4-1.4-1.4-1.4c-5.2,0-10.4-0.5-15.6,0.6c-0.7,0.2-1.4-0.1-2.1-0.2
		c-1.1,0-2.2-0.1-3.3,0c-0.2,0-0.6,0.5-0.6,0.8C10.9,95.2,10.5,98.8,10.1,101.7z"/>
	<path d="M77.8,140.5c0.4,2.4,0.1,4.8-1.7,6.4c-1.3,1.2-2.7,2.2-4.4,3.1c-3.6,1.7-6.9,4.1-10.3,6.2c-2.3,1.5-4.7,2.9-6.9,4.5
		c-2,1.4-3.8,3-5.6,4.5c-0.2,0.2-0.1,1.1,0.2,1.3c4.5,3.4,9.1,6.7,13.6,10.1c2.8,2.1,5.6,4.4,8.4,6.6c1.1,0.8,2.4,1.4,3.2,2.3
		c1.1,1.3,2.3,2.7,2.7,4.3c0.5,2.2,0.5,4.5,0.5,6.7c0,2.4-2.2,4-4.3,3.1c-0.9-0.4-1.6-1.4-2.5-2.1c-3.6-2.8-7.3-5.6-10.9-8.4
		c-2.5-2-4.9-4.1-7.4-6.1c-3.4-2.6-6.9-5-10.4-7.6c-1-0.8-1.8-1.9-2.8-2.8c-0.2-0.2-0.6-0.5-0.9-0.5c-1.4,0-2.8-0.2-4.1,0
		c-5,1-10,0.6-15,0.3c-1.8-0.1-3.6,0-5.4,0c-2.1-0.1-4.3-0.2-6.4-0.3c-1.9-0.1-3.8-0.2-5.1-1.8c-0.7-0.9-1.6-1.9-1.8-2.9
		c-0.3-1.6,0-3.3,0.2-4.9c0.2-1.7,1.8-1.9,3-2c3.4-0.3,6.8-0.5,10.2-0.7c3.8-0.2,7.7-0.4,11.5-0.5c2.9,0,5.9,0.2,8.8,0.4
		c1.3,0.1,2.6,0.1,3.7-0.8c3.3-2.5,6.7-4.9,10-7.4c4.4-3.4,9.1-6.5,13.8-9.3c0.9-0.5,1.7-1.2,2.5-1.9c2.9-2.7,6.3-4.5,10-5.7
		c2-0.6,3,0.1,3.2,2.2C77.7,138.2,77.7,139.4,77.8,140.5z"/>
</g>
</svg>
