<?xml version="1.0" encoding="utf-8"?>
<!-- Generator: Adobe Illustrator 19.1.0, SVG Export Plug-In . SVG Version: 6.00 Build 0)  -->
<!DOCTYPE svg PUBLIC "-//W3C//DTD SVG 1.1//EN" "http://www.w3.org/Graphics/SVG/1.1/DTD/svg11.dtd">
<svg version="1.1" id="Layer_1" xmlns="http://www.w3.org/2000/svg" xmlns:xlink="http://www.w3.org/1999/xlink" x="0px" y="0px"
	 viewBox="0 0 992 13.2" enable-background="new 0 0 992 13.2" xml:space="preserve">
<g>
	<g>
		<path fill="#242156" d="M0.4,5.8l0,0.5c-0.2,0-0.3,0.1-0.4,0.2C0,6.7,0,6.9,0.1,7.1c0,0.1,0.1,0.2,0.4,0.2l0.5,0l990.6,0.8
			c0.3,0,0.4-0.2,0.4-0.5c0-0.3-0.2-0.5-0.4-0.5L0.4,6.3L0.4,5.8z"/>
	</g>
</g>
<g>
	<g>
		<path fill="#242156" d="M38.9,8.2v0.5c-0.3,0-0.4,0.2-0.4,0.5c0,0.1,0,0.3,0.1,0.4c0,0.1,0.1,0.2,0.4,0.2
			c31.9,0.3,63.7,0.6,95.6,0.9l0.6,0c88.4,0.9,179.8,1.8,269.6,2.3c100.5,0.6,233.1,0.7,367.1-2.9C844.4,8,911.5,5.1,977.3,1
			c0.2,0,0.3-0.1,0.4-0.2c0.1-0.1,0.1-0.3,0.1-0.4c0-0.4-0.2-0.4-0.4-0.4C867.2,6.8,747.2,10.6,610.6,11.8
			c-124.3,1.1-247.8-0.1-367.2-1.2L39,8.7L38.9,8.2z"/>
	</g>
</g>
</svg>
